<svg width="537" height="460" viewBox="-775 -210 1437 860" fill="none" xmlns="http://www.w3.org/2000/svg">
  <path d="M322.724 136.571C339.679 167.954 332.959 217.201 298.639 217.201C263.557 230.84 222.24 235.636 195.993 206.472C175.284 183.462 211.243 159.369 229.711 126.695C244.485 100.557 224.201 57.2517 221.225 27.3469L246.481 43.7296C246.481 82.996 308.764 110.734 322.724 136.571Z" fill="#151C44"/>
  <path d="M240.007 4.79332L315.709 333.459C315.588 335.906 313.665 337.06 311.432 337.474C308.611 337.999 307.286 337.344 306.12 336.714L228.581 0.462891L240.007 4.79332Z" fill="#664840"/>
  <path d="M220.306 11.2076L521.004 437.063C521.91 439.662 523.466 445.445 522.444 447.785C521.422 450.126 517.195 451.377 515.209 451.709L204.32 10.7041L220.306 11.2076Z" fill="#8B574A"/>
  <path d="M336.159 445.912C322.426 447.877 286.277 456.67 252.858 449.719C234.8 447.371 171.244 445.672 151.4 439.925C131.556 434.178 109.71 442.621 76.4212 433.031C43.1323 423.441 80.7926 397.257 91.0845 386.124C101.376 374.99 111.256 359.073 136.132 355.013C161.007 350.954 217.909 342.661 248.071 336.747C278.233 330.834 326.805 346.474 340.977 348.765C355.148 351.055 363.248 371.04 399.101 381.286C434.955 391.532 424.349 409.002 422.144 414.185C419.939 419.368 349.892 443.946 336.159 445.912Z" fill="#808080"/>
  <path d="M318.873 430.424C307.737 432.072 278.42 439.419 251.332 433.675C236.694 431.742 185.167 430.394 169.085 425.636C153.002 420.878 135.281 427.92 108.302 419.981C81.3226 412.042 111.883 390.234 120.238 380.967C128.594 371.7 136.621 358.455 156.793 355.055C176.965 351.655 223.107 344.701 247.567 339.754C272.027 334.806 311.392 347.759 322.879 349.649C334.366 351.539 340.912 368.146 369.97 376.628C399.028 385.111 390.411 399.646 388.618 403.958C386.825 408.269 330.009 428.776 318.873 430.424Z" fill="#3A3530"/>
  <path d="M326.606 208.963C332.606 196.563 273.44 99.4629 243.106 52.4629C219.94 100.296 173.206 198.563 171.606 208.963C170.006 219.363 185.94 229.296 194.106 232.963H297.606C304.773 230.13 320.606 221.363 326.606 208.963Z" stroke="#363636" stroke-width="4" stroke-linejoin="round"/>
  <path d="M12.3367 395.852L264.298 26.0456C265.126 23.74 266.618 18.5854 265.961 16.4123C265.304 14.2393 262.143 12.8842 260.644 12.4782L0.106445 395.466L12.3367 395.852Z" fill="#78544B"/>
  <path fill-rule="evenodd" clip-rule="evenodd" d="M302.106 211.463H188.106V277.463C188.106 287.956 213.626 296.463 245.106 296.463C276.587 296.463 302.106 287.956 302.106 277.463V211.463Z" fill="#A1ADB8"/>
  <ellipse cx="245.106" cy="223.463" rx="60" ry="16" fill="#2A3170"/>
  <rect x="185.106" y="199.463" width="120" height="24" fill="#2A3170"/>
  <ellipse cx="245.106" cy="200.463" rx="60" ry="16" fill="#3B68A6"/>
  <path fill-rule="evenodd" clip-rule="evenodd" d="M236.106 180.463C237.773 182.463 241.006 186.963 240.606 188.963C240.379 190.098 238.959 191.073 237.775 191.886C237.186 192.29 236.655 192.654 236.358 192.978C236.194 193.134 236.106 193.296 236.106 193.463C236.106 194.567 239.912 195.463 244.606 195.463C249.301 195.463 253.106 194.567 253.106 193.463C253.106 193.353 253.069 193.245 252.996 193.14C252.751 192.74 252.131 192.25 251.456 191.715C250.354 190.844 249.106 189.856 249.106 188.963C249.106 187.363 251.773 182.63 253.106 180.463H236.106Z" fill="#2A3170"/>
  <ellipse cx="244.606" cy="180.463" rx="8.5" ry="2" fill="#3B68A6"/>
  <rect x="236.106" y="179.463" width="17" height="1" fill="#3B68A6"/>
  <ellipse cx="244.606" cy="179.463" rx="8.5" ry="2" fill="#6F8CC1"/>
  <path d="M273.504 345.437C243.165 347.404 94.8552 406.562 91.3215 412.599C87.7879 418.636 95.6455 423.175 102.155 425.706C111.014 429.149 129.269 422.086 129.269 422.086C161.683 409.437 232.992 382.241 258.923 374.652C291.337 365.165 346.677 354.887 358.536 353.306C368.023 352.041 351.639 348.057 343.733 342.259C339.78 344.104 302.536 343.556 273.504 345.437Z" fill="#4A433C"/>
  <path d="M269.982 337.89C267.83 339.325 224.248 403.951 202.726 436.085C195.551 441.465 184.791 438.775 184.791 433.843C184.791 428.911 247.115 341.926 249.805 337.89C252.495 333.855 272.672 336.097 269.982 337.89Z" fill="#655442"/>
  <path d="M288.196 358.155C288.364 369.589 252.894 369.053 233.229 369.064C202.297 369.916 198.782 352.177 204.276 344.915C210.516 336.666 227.515 328.481 237.617 323.476C244.406 320.112 238.939 307.534 234.887 299.109C244.229 305.294 262.505 319.274 260.871 325.713C258.828 333.763 288.027 346.722 288.196 358.155Z" fill="#FBB63B"/>
  <path d="M278.757 360.528C278.887 369.337 251.56 368.924 236.41 368.932C212.58 369.589 209.872 355.923 214.104 350.328C218.911 343.972 232.008 337.667 239.79 333.811C245.021 331.219 248.778 323.859 245.656 317.368C252.854 322.133 258.965 330.574 257.706 335.535C256.131 341.736 278.627 351.72 278.757 360.528Z" fill="#E4694A"/>
  <path d="M246.216 367.912C249.645 366.107 277.871 363.551 291.556 362.498L244.186 375.581C243.434 373.777 242.787 369.716 246.216 367.912Z" fill="#4A433C"/>
  <path d="M216.892 357.343C247.903 360.018 371.106 404.662 375.197 410.049C379.289 415.436 376.602 418.038 369.017 419.6C359.253 421.61 343.208 416.948 343.208 416.948C310.524 405.015 238.633 379.395 212.541 372.378C179.927 363.607 134.382 361.478 127.717 357.343C119.585 352.297 133.441 348.037 140.363 346.236C152.914 342.97 187.907 354.843 216.892 357.343Z" fill="#574F48"/>
  <path d="M245.289 49.2717C242.994 49.7044 232.012 50.1374 230.045 47.3242C227.587 47.3242 229.675 51.6287 231.407 52.1236C235.723 53.3562 241.051 53.6106 243.001 53.268C245.296 52.8648 254.467 51.0029 253.976 47.3242C253.484 43.6454 247.583 48.839 245.289 49.2717Z" fill="#E4694A"/>
  <path d="M236.829 52.9682C239.123 53.401 250.105 53.8339 252.072 51.0207C254.53 51.0207 252.443 55.3253 250.71 55.8202C246.394 57.0527 241.066 57.3071 239.116 56.9645C236.821 56.5613 227.65 54.6995 228.141 51.0207C228.633 47.3419 234.534 52.5355 236.829 52.9682Z" fill="#CA5335"/>
</svg>
